<svg width="32" height="32" viewBox="0 0 32 32" fill="none" xmlns="http://www.w3.org/2000/svg">
<path d="M11.3141 3.99097C12.4477 3.59136 13.6934 4.1303 14.0961 5.19421C14.4042 6.00875 14.1285 6.89418 13.4746 7.44426L13.8279 8.41303L14.39 9.06527C14.5183 9.21455 14.713 9.28591 14.9081 9.26181C15.434 9.19673 15.9566 9.19428 16.4685 9.24838C16.6419 9.26691 16.8145 9.2093 16.939 9.08764L17.3446 8.69291L17.6436 7.8175C17.3892 7.46637 17.3031 7.00134 17.4539 6.55949C17.7099 5.81047 18.5461 5.42335 19.2898 5.73008C19.9304 5.99398 20.2789 6.71049 20.0914 7.37725C19.9722 7.80194 19.6706 8.12003 19.2995 8.27745L18.9684 9.24758L19.0439 9.78209C19.0698 9.96583 19.1784 10.1264 19.3369 10.2226C19.8699 10.5478 20.3594 10.9454 20.7892 11.405C20.9336 11.5597 21.1491 11.626 21.3562 11.5841L22.4221 11.3689L23.6263 10.6974C23.6325 10.1019 23.9491 9.52631 24.5062 9.2156C25.3485 8.74612 26.4152 9.06163 26.864 9.92192C27.2692 10.698 27.0148 11.6736 26.2809 12.1514C25.7079 12.5238 25.0086 12.5102 24.4689 12.1922L23.2575 12.8673L22.5811 13.5897C22.3995 13.7835 22.3348 14.0577 22.4041 14.3143C22.4045 14.3158 22.4048 14.3168 22.4052 14.3183C22.5237 14.7606 22.5957 15.2051 22.6254 15.6457C22.6427 15.9081 22.7904 16.1443 23.0218 16.2697L23.9047 16.7482L25.6546 17.0801C25.963 16.81 26.388 16.6793 26.8222 16.7612C27.6007 16.9091 28.1019 17.6838 27.9025 18.4638C27.7309 19.1316 27.0764 19.5763 26.3921 19.4888C25.9253 19.4291 25.5486 19.147 25.3462 18.7679L23.585 18.4342L22.4986 18.5671C22.2984 18.5921 22.1236 18.718 22.0419 18.9024C21.7169 19.6304 21.2684 20.2999 20.7146 20.8778C20.577 21.0214 20.5254 21.227 20.5754 21.4195L20.8453 22.4675L21.5118 23.5154C22.2451 23.4051 23.0079 23.7229 23.4312 24.3885C24.0001 25.2827 23.7421 26.4668 22.8565 27.0437C21.9715 27.6205 20.7671 27.3696 20.187 26.4865C19.7808 25.8683 19.7764 25.1056 20.1056 24.5006L19.3981 23.3884L18.5281 22.6707C18.3992 22.5639 18.2237 22.5356 18.0665 22.5918C17.892 22.6543 17.7141 22.7101 17.5321 22.7588C16.5434 23.0237 15.5466 23.0579 14.5985 22.8959C14.4595 22.8725 14.3173 22.9122 14.211 23.0046L13.7441 23.4114L13.3969 24.2688C13.6318 24.6339 13.6918 25.1026 13.5168 25.5352C13.2195 26.2693 12.3631 26.6093 11.6378 26.2619C11.0132 25.9628 10.7047 25.228 10.9289 24.5726C11.0716 24.1551 11.3897 23.8543 11.7693 23.7179L12.1539 22.7676L12.0824 21.9329C11.3888 21.4974 10.7715 20.9385 10.2668 20.2779L9.0804 20.3954L7.96999 20.9459C7.97722 21.6926 7.5939 22.4032 6.92111 22.7471C5.97043 23.2326 4.80265 22.8027 4.31311 21.7865C3.82371 20.7708 4.19698 19.5537 5.14766 19.0682C5.8591 18.7047 6.69162 18.8538 7.27087 19.378L8.31808 18.8585L9.04482 18.077C9.09232 18.0258 9.1099 17.9539 9.09189 17.8867L9.09162 17.8857C8.75574 16.6322 8.79002 15.3651 9.12698 14.2005C9.14507 14.1366 9.13147 14.0677 9.0886 14.0169L8.46162 13.2661L7.11078 12.5554C6.73871 12.7195 6.29761 12.7191 5.9097 12.5148C5.20891 12.1456 4.95639 11.2598 5.37412 10.5726C5.74084 9.96995 6.52195 9.74116 7.15622 10.0501C7.56678 10.25 7.83163 10.6238 7.90992 11.0373L9.26076 11.748L10.2223 11.8387C10.289 11.8452 10.3541 11.8169 10.3965 11.7649C10.8325 11.225 11.3517 10.7484 11.9414 10.3574C12.1032 10.2496 12.2038 10.0709 12.2064 9.87629L12.2163 9.00144L11.8394 7.96909C11.0224 7.9101 10.2833 7.41417 9.99038 6.64049C9.58775 5.57659 10.1805 4.39008 11.3141 3.99097Z" fill="#EC5863"/>
<path d="M20.6776 14.7812C19.9481 12.0589 17.1499 10.4434 14.4276 11.1728C11.7053 11.9023 10.0898 14.7005 10.8192 17.4228C11.5487 20.1451 14.3469 21.7606 17.0692 21.0312C19.7915 20.3017 21.407 17.5035 20.6776 14.7812Z" fill="#F58A97"/>
<path d="M16.6666 19.5288C14.1997 20.1898 11.6705 18.9252 10.6748 16.6563C10.703 16.9113 10.7508 17.1674 10.8192 17.4228C11.5487 20.1451 14.3468 21.7606 17.0692 21.0312C19.7915 20.3017 21.407 17.5036 20.6776 14.7812C20.6091 14.5258 20.5225 14.2802 20.4194 14.0453C20.6915 16.508 19.1335 18.8678 16.6666 19.5288Z" fill="#F07281"/>
<path d="M9.00945 26.7967C8.80172 26.0215 8.00488 25.5614 7.22964 25.7691C6.4544 25.9769 5.99434 26.7737 6.20207 27.5489C6.40979 28.3242 7.20664 28.7842 7.98188 28.5765C8.75711 28.3688 9.21717 27.5719 9.00945 26.7967Z" fill="#EB5569"/>
<path d="M27.1385 22.3503C27.0013 21.8382 26.475 21.5344 25.9629 21.6716C25.4509 21.8088 25.147 22.3351 25.2842 22.8471C25.4214 23.3592 25.9478 23.6631 26.4598 23.5259C26.9719 23.3887 27.2757 22.8623 27.1385 22.3503Z" fill="#EB5569"/>
<path d="M24.5387 4.8017C24.3366 4.04749 23.5614 3.5999 22.8072 3.80199C22.053 4.00408 21.6054 4.77932 21.8075 5.53354C22.0096 6.28776 22.7848 6.73534 23.539 6.53325C24.2932 6.33116 24.7408 5.55592 24.5387 4.8017Z" fill="#EB5569"/>
<path d="M16.0676 17.6381C15.8792 16.935 15.1564 16.5177 14.4533 16.7061C13.7501 16.8945 13.3328 17.6173 13.5212 18.3204C13.7097 19.0236 14.4324 19.4409 15.1356 19.2525C15.8387 19.0641 16.256 18.3413 16.0676 17.6381Z" fill="#EB5569"/>
<path d="M19.3418 15.6655C19.2135 15.1868 18.7216 14.9028 18.243 15.0311C17.7644 15.1593 17.4803 15.6513 17.6086 16.1299C17.7368 16.6085 18.2288 16.8925 18.7074 16.7643C19.186 16.636 19.47 16.1441 19.3418 15.6655Z" fill="#EB5569"/>
<path d="M15.8785 13.6769C15.7708 13.275 15.3577 13.0365 14.9558 13.1442C14.5539 13.2519 14.3154 13.665 14.4231 14.0669C14.5308 14.4688 14.9439 14.7073 15.3458 14.5996C15.7477 14.4919 15.9862 14.0788 15.8785 13.6769Z" fill="#EB5569"/>
</svg>
