<svg width="152" height="152" viewBox="0 0 152 152" fill="none" xmlns="http://www.w3.org/2000/svg">
<path d="M53.7422 18.9571C59.1264 17.0589 65.0438 19.6189 66.9563 24.6724C68.4201 28.5415 67.1102 32.7473 64.0044 35.3602L65.6826 39.9619L68.3527 43.06C68.9621 43.7691 69.8867 44.108 70.8133 43.9936C73.3114 43.6844 75.7941 43.6728 78.2252 43.9298C79.0491 44.0178 79.8687 43.7441 80.4601 43.1662L82.3868 41.2913L83.8073 37.1331C82.5987 35.4652 82.1896 33.2563 82.9061 31.1575C84.1221 27.5997 88.094 25.7609 91.6263 27.2178C94.6693 28.4714 96.3249 31.8748 95.434 35.0419C94.868 37.0592 93.4356 38.5701 91.6725 39.3178L90.0998 43.926L90.4585 46.4649C90.5817 47.3377 91.0973 48.1001 91.8503 48.5572C94.382 50.1021 96.7073 51.9905 98.7488 54.1738C99.4346 54.9087 100.458 55.2236 101.442 55.0244L106.505 54.0023L112.225 50.8124C112.255 47.9842 113.758 45.2499 116.404 43.7741C120.405 41.5441 125.472 43.0427 127.604 47.1291C129.529 50.8156 128.32 55.4495 124.834 57.7191C122.112 59.4881 118.791 59.4233 116.227 57.9127L110.473 61.1194L107.26 64.5511C106.398 65.4718 106.09 66.7739 106.42 67.9929C106.422 68.0001 106.423 68.0049 106.425 68.0121C106.988 70.1129 107.329 72.224 107.471 74.3168C107.553 75.5635 108.255 76.6852 109.354 77.2811L113.547 79.5541L121.859 81.1302C123.324 79.8473 125.343 79.2267 127.405 79.6158C131.103 80.3181 133.484 83.9982 132.537 87.7028C131.722 90.8753 128.613 92.9872 125.362 92.5716C123.145 92.2881 121.356 90.9484 120.394 89.1473L112.029 87.5625L106.869 88.1937C105.917 88.3122 105.087 88.9104 104.699 89.7864C103.155 93.2442 101.025 96.4243 98.3945 99.1697C97.741 99.8518 97.4957 100.828 97.733 101.743L99.0154 106.721L102.181 111.698C105.664 111.174 109.288 112.684 111.298 115.846C114.001 120.093 112.775 125.717 108.568 128.458C104.364 131.198 98.6438 130.005 95.8883 125.811C93.959 122.874 93.9379 119.252 95.5017 116.378L92.1408 111.095L88.0082 107.686C87.3962 107.178 86.5625 107.044 85.8157 107.311C84.9869 107.608 84.1418 107.873 83.2775 108.104C78.5813 109.363 73.8462 109.525 69.3427 108.755C68.6824 108.644 68.0073 108.833 67.5022 109.272L65.2845 111.204L63.6353 115.277C64.7509 117.011 65.0362 119.237 64.205 121.292C62.7925 124.779 58.7246 126.394 55.2794 124.744C52.3126 123.323 50.8472 119.833 51.9121 116.72C52.5902 114.737 54.1012 113.308 55.9039 112.66L57.7308 108.146L57.3916 104.181C54.0968 102.113 51.1647 99.4578 48.7671 96.32L43.1319 96.8779L37.8574 99.4929C37.8918 103.04 36.071 106.415 32.8752 108.048C28.3595 110.355 22.8126 108.313 20.4873 103.486C18.1626 98.6612 19.9357 92.88 24.4514 90.5738C27.8307 88.8474 31.7852 89.5557 34.5366 92.0453L39.5109 89.5776L42.9629 85.8658C43.1885 85.6227 43.272 85.2812 43.1865 84.9619L43.1852 84.9571C41.5897 79.0029 41.7526 72.9841 43.3531 67.4524C43.4391 67.1489 43.3745 66.8214 43.1709 66.58L40.1927 63.0138L33.7762 59.638C32.0089 60.4178 29.9137 60.4156 28.0711 59.4452C24.7423 57.6918 23.5429 53.4842 25.5271 50.2197C27.269 47.3572 30.9792 46.2705 33.992 47.738C35.9422 48.6873 37.2002 50.4629 37.5721 52.427L43.9886 55.8028L48.5558 56.2336C48.8729 56.2645 49.1817 56.1302 49.3832 55.8833C51.4545 53.3185 53.9204 51.0547 56.7217 49.1975C57.4903 48.6854 57.968 47.8369 57.9802 46.9124L58.0272 42.7568L56.2372 37.8531C52.3563 37.5729 48.8456 35.2173 47.4543 31.5423C45.5418 26.4888 48.3574 20.8529 53.7422 18.9571Z" fill="#EC5863"/>
<path d="M98.2185 70.2108C94.7536 57.2799 81.4623 49.6061 68.5313 53.0709C55.6004 56.5358 47.9266 69.8272 51.3914 82.7581C54.8563 95.689 68.1477 103.363 81.0786 99.898C94.0095 96.4332 101.683 83.1418 98.2185 70.2108Z" fill="#F58A97"/>
<path d="M79.1664 92.7616C67.4484 95.9014 55.4349 89.8947 50.7054 79.1175C50.8393 80.3287 51.0664 81.5449 51.3914 82.7581C54.8563 95.6893 68.1474 103.363 81.0786 99.898C94.0098 96.4331 101.683 83.1421 98.2185 70.2108C97.8934 68.9977 97.4819 67.8308 96.9923 66.715C98.2848 78.4129 90.8842 89.6218 79.1664 92.7616Z" fill="#F07281"/>
<path d="M42.7949 127.284C41.8082 123.602 38.0232 121.417 34.3408 122.403C30.6584 123.39 28.4731 127.175 29.4598 130.857C30.4465 134.54 34.2315 136.725 37.9139 135.738C41.5963 134.752 43.7816 130.967 42.7949 127.284Z" fill="#EB5569"/>
<path d="M128.908 106.164C128.256 103.732 125.756 102.288 123.324 102.94C120.892 103.592 119.448 106.092 120.1 108.524C120.752 110.956 123.252 112.4 125.684 111.748C128.116 111.096 129.56 108.596 128.908 106.164Z" fill="#EB5569"/>
<path d="M116.559 22.808C115.599 19.2255 111.917 17.0995 108.334 18.0594C104.752 19.0193 102.626 22.7017 103.586 26.2843C104.545 29.8668 108.228 31.9928 111.81 31.0329C115.393 30.0729 117.519 26.3906 116.559 22.808Z" fill="#EB5569"/>
<path d="M76.3212 83.7811C75.4262 80.4411 71.9931 78.459 68.6531 79.354C65.3131 80.2489 63.331 83.682 64.2259 87.022C65.1209 90.362 68.554 92.3441 71.894 91.4492C75.234 90.5542 77.2161 87.1211 76.3212 83.7811Z" fill="#EB5569"/>
<path d="M91.8734 74.4109C91.2643 72.1375 88.9275 70.7884 86.6541 71.3975C84.3807 72.0067 83.0316 74.3434 83.6408 76.6168C84.2499 78.8902 86.5867 80.2393 88.8601 79.6302C91.1335 79.021 92.4826 76.6843 91.8734 74.4109Z" fill="#EB5569"/>
<path d="M75.4229 64.9652C74.9114 63.0562 72.9492 61.9233 71.0402 62.4348C69.1312 62.9463 67.9983 64.9085 68.5098 66.8175C69.0213 68.7265 70.9835 69.8594 72.8925 69.3479C74.8016 68.8364 75.9344 66.8742 75.4229 64.9652Z" fill="#EB5569"/>
</svg>
