<svg width="16" height="16" viewBox="0 0 16 16" fill="none" xmlns="http://www.w3.org/2000/svg">
<path d="M5.65707 1.99549C6.22383 1.79568 6.84671 2.06515 7.04803 2.5971C7.20212 3.00438 7.06423 3.44709 6.73731 3.72213L6.91396 4.20651L7.19502 4.53264C7.25917 4.60727 7.35649 4.64295 7.45403 4.6309C7.71699 4.59837 7.97832 4.59714 8.23423 4.62419C8.32096 4.63346 8.40723 4.60465 8.46948 4.54382L8.6723 4.34645L8.82182 3.90875C8.6946 3.73319 8.65153 3.50067 8.72696 3.27975C8.85495 2.90524 9.27305 2.71168 9.64488 2.86504C9.96519 2.99699 10.1395 3.35525 10.0457 3.68862C9.98611 3.90097 9.83532 4.06001 9.64974 4.13872L9.48419 4.62379L9.52194 4.89104C9.53491 4.98292 9.5892 5.06318 9.66845 5.11128C9.93495 5.27391 10.1797 5.47269 10.3946 5.70251C10.4668 5.77986 10.5746 5.81302 10.6781 5.79205L11.2111 5.68445L11.8132 5.34868C11.8163 5.05097 11.9745 4.76315 12.2531 4.6078C12.6742 4.37306 13.2076 4.53082 13.432 4.96096C13.6346 5.34901 13.5074 5.83679 13.1405 6.0757C12.8539 6.2619 12.5043 6.25509 12.2345 6.09608L11.6288 6.43363L11.2905 6.79485C11.1998 6.89177 11.1674 7.02883 11.2021 7.15715C11.2023 7.15791 11.2024 7.15841 11.2026 7.15917C11.2619 7.38031 11.2978 7.60253 11.3127 7.82283C11.3213 7.95406 11.3952 8.07213 11.5109 8.13486L11.9523 8.37412L12.8273 8.54003C12.9815 8.40498 13.194 8.33965 13.4111 8.38062C13.8004 8.45454 14.051 8.84192 13.9512 9.23188C13.8655 9.56582 13.5382 9.78813 13.196 9.74438C12.9627 9.71454 12.7743 9.57352 12.6731 9.38393L11.7925 9.2171L11.2493 9.28355C11.1492 9.29603 11.0618 9.359 11.0209 9.4512C10.8584 9.81518 10.6342 10.1499 10.3573 10.4389C10.2885 10.5107 10.2627 10.6135 10.2877 10.7098L10.4227 11.2337L10.7559 11.7577C11.1225 11.7025 11.504 11.8615 11.7156 12.1943C12.0001 12.6414 11.871 13.2334 11.4283 13.5219C10.9857 13.8103 10.3836 13.6848 10.0935 13.2432C9.89042 12.9341 9.8882 12.5528 10.0528 12.2503L9.69903 11.6942L9.26403 11.3354C9.1996 11.2819 9.11184 11.2678 9.03323 11.2959C8.94599 11.3271 8.85703 11.355 8.76605 11.3794C8.27172 11.5119 7.77329 11.5289 7.29923 11.4479C7.22973 11.4362 7.15866 11.4561 7.10549 11.5023L6.87206 11.7057L6.69845 12.1344C6.81589 12.3169 6.84592 12.5513 6.75842 12.7676C6.60974 13.1347 6.18153 13.3047 5.81888 13.131C5.50659 12.9814 5.35234 12.614 5.46443 12.2863C5.53581 12.0776 5.69487 11.9271 5.88463 11.8589L6.07693 11.3838L6.04122 10.9665C5.6944 10.7487 5.38576 10.4692 5.13338 10.139L4.5402 10.1977L3.98499 10.4729C3.98861 10.8463 3.79695 11.2016 3.46055 11.3735C2.98521 11.6163 2.40133 11.4014 2.15656 10.8933C1.91186 10.3854 2.09849 9.77684 2.57383 9.53409C2.92955 9.35236 3.34581 9.42692 3.63543 9.68898L4.15904 9.42923L4.52241 9.03851C4.54616 9.01292 4.55495 8.97697 4.54594 8.94336L4.54581 8.94285C4.37787 8.31609 4.39501 7.68254 4.56349 7.10026C4.57254 7.06831 4.56574 7.03384 4.5443 7.00843L4.23081 6.63303L3.55539 6.27769C3.36936 6.35977 3.14881 6.35954 2.95485 6.25739C2.60446 6.07282 2.4782 5.62992 2.68706 5.28629C2.87042 4.98498 3.26097 4.87058 3.57811 5.02505C3.78339 5.12498 3.91582 5.31189 3.95496 5.51863L4.63038 5.87398L5.11114 5.91933C5.14451 5.92258 5.17703 5.90845 5.19823 5.88245C5.41626 5.61248 5.67583 5.37418 5.97071 5.17869C6.05161 5.12478 6.10189 5.03546 6.10318 4.93815L6.10813 4.50072L5.91971 3.98454C5.51119 3.95505 5.14164 3.70708 4.99519 3.32025C4.79388 2.78829 5.09025 2.19504 5.65707 1.99549Z" fill="#EC5863"/>
<path d="M10.3388 7.39062C9.97407 6.02947 8.57497 5.2217 7.21382 5.58642C5.85267 5.95114 5.04491 7.35023 5.40962 8.71138C5.77434 10.0725 7.17344 10.8803 8.53459 10.5156C9.89574 10.1509 10.7035 8.75177 10.3388 7.39062Z" fill="#F58A97"/>
<path d="M8.33331 9.76438C7.09983 10.0949 5.83525 9.46261 5.33741 8.32816C5.3515 8.45565 5.37541 8.58368 5.40962 8.71138C5.77435 10.0726 7.17341 10.8803 8.53459 10.5156C9.89577 10.1509 10.7035 8.7518 10.3388 7.39062C10.3046 7.26292 10.2613 7.14009 10.2097 7.02264C10.3458 8.25399 9.56676 9.43388 8.33331 9.76438Z" fill="#F07281"/>
<path d="M4.50472 13.3984C4.40086 13.0107 4.00244 12.7807 3.61482 12.8846C3.2272 12.9884 2.99717 13.3869 3.10103 13.7745C3.2049 14.1621 3.60332 14.3921 3.99094 14.2883C4.37856 14.1844 4.60859 13.786 4.50472 13.3984Z" fill="#EB5569"/>
<path d="M13.5693 11.1751C13.5007 10.9191 13.2375 10.7672 12.9815 10.8358C12.7254 10.9044 12.5735 11.1675 12.6421 11.4236C12.7107 11.6796 12.9739 11.8315 13.2299 11.7629C13.4859 11.6943 13.6379 11.4312 13.5693 11.1751Z" fill="#EB5569"/>
<path d="M12.2694 2.40085C12.1683 2.02374 11.7807 1.79995 11.4036 1.901C11.0265 2.00204 10.8027 2.38966 10.9037 2.76677C11.0048 3.14388 11.3924 3.36767 11.7695 3.26663C12.1466 3.16558 12.3704 2.77796 12.2694 2.40085Z" fill="#EB5569"/>
<path d="M8.03381 8.81907C7.9396 8.4675 7.57822 8.25885 7.22664 8.35306C6.87506 8.44726 6.66642 8.80864 6.76062 9.16022C6.85483 9.5118 7.21621 9.72045 7.56779 9.62624C7.91937 9.53203 8.12801 9.17065 8.03381 8.81907Z" fill="#EB5569"/>
<path d="M9.67089 7.83273C9.60677 7.59342 9.36079 7.45141 9.12149 7.51553C8.88218 7.57965 8.74017 7.82563 8.80429 8.06493C8.86841 8.30424 9.11439 8.44625 9.35369 8.38213C9.593 8.31801 9.73501 8.07203 9.67089 7.83273Z" fill="#EB5569"/>
<path d="M7.93926 6.83844C7.88541 6.63749 7.67886 6.51824 7.47791 6.57209C7.27697 6.62593 7.15771 6.83248 7.21156 7.03343C7.2654 7.23438 7.47195 7.35363 7.6729 7.29978C7.87385 7.24594 7.9931 7.03939 7.93926 6.83844Z" fill="#EB5569"/>
</svg>
